{
    "asset" : {
        "generator" : "Khronos glTF Blender I/O v1.1.46",
        "version" : "2.0"
    },
    "scene" : 0,
    "scenes" : [
        {
            "name" : "Scene",
            "nodes" : [
                1,
                3,
                5,
                10
            ]
        }
    ],
    "nodes" : [
        {
            "mesh" : 0,
            "name" : "farm_land-colonly"
        },
        {
            "children" : [
                0
            ],
            "mesh" : 1,
            "name" : "farm_land"
        },
        {
            "mesh" : 2,
            "name" : "farm_stable-colonly"
        },
        {
            "children" : [
                2
            ],
            "mesh" : 3,
            "name" : "farm_stable"
        },
        {
            "mesh" : 4,
            "name" : "farm_field-colonly"
        },
        {
            "children" : [
                4
            ],
            "mesh" : 5,
            "name" : "farm_field"
        },
        {
            "mesh" : 6,
            "name" : "farm_house-colonly",
            "rotation" : [
                0,
                0,
                -1,
                0
            ],
            "scale" : [
                -12.606366157531738,
                -3.554588794708252,
                -13.97468376159668
            ],
            "translation" : [
                31.854652404785156,
                3.7997148036956787,
                -40.05610656738281
            ]
        },
        {
            "mesh" : 7,
            "name" : "plant_pot"
        },
        {
            "mesh" : 8,
            "name" : "plant_pot.001",
            "translation" : [
                7.962126731872559,
                0,
                0
            ]
        },
        {
            "mesh" : 9,
            "name" : "plant_pot.002",
            "scale" : [
                1.0062607526779175,
                1,
                1
            ],
            "translation" : [
                12.87619686126709,
                0,
                0
            ]
        },
        {
            "children" : [
                6,
                7,
                8,
                9
            ],
            "mesh" : 10,
            "name" : "farm_house",
            "scale" : [
                0.5236617922782898,
                0.5236617922782898,
                0.5236617922782898
            ],
            "translation" : [
                7.21703577041626,
                0,
                -15.043961524963379
            ]
        }
    ],
    "materials" : [
        {
            "doubleSided" : true,
            "emissiveFactor" : [
                0,
                0,
                0
            ],
            "name" : "Material",
            "pbrMetallicRoughness" : {
                "baseColorTexture" : {
                    "index" : 0,
                    "texCoord" : 0
                },
                "metallicFactor" : 0,
                "roughnessFactor" : 0.4000000059604645
            }
        }
    ],
    "meshes" : [
        {
            "name" : "Plane.004",
            "primitives" : [
                {
                    "attributes" : {
                        "POSITION" : 0,
                        "NORMAL" : 1,
                        "TEXCOORD_0" : 2
                    },
                    "indices" : 3,
                    "material" : 0
                }
            ]
        },
        {
            "name" : "Plane",
            "primitives" : [
                {
                    "attributes" : {
                        "POSITION" : 4,
                        "NORMAL" : 5,
                        "TEXCOORD_0" : 6
                    },
                    "indices" : 7,
                    "material" : 0
                }
            ]
        },
        {
            "name" : "Plane.005",
            "primitives" : [
                {
                    "attributes" : {
                        "POSITION" : 8,
                        "NORMAL" : 9,
                        "TEXCOORD_0" : 10
                    },
                    "indices" : 11,
                    "material" : 0
                }
            ]
        },
        {
            "name" : "Plane.001",
            "primitives" : [
                {
                    "attributes" : {
                        "POSITION" : 12,
                        "NORMAL" : 13,
                        "TEXCOORD_0" : 14
                    },
                    "indices" : 11,
                    "material" : 0
                }
            ]
        },
        {
            "name" : "Plane.006",
            "primitives" : [
                {
                    "attributes" : {
                        "POSITION" : 15,
                        "NORMAL" : 16,
                        "TEXCOORD_0" : 17
                    },
                    "indices" : 18,
                    "material" : 0
                }
            ]
        },
        {
            "name" : "Plane.002",
            "primitives" : [
                {
                    "attributes" : {
                        "POSITION" : 19,
                        "NORMAL" : 20,
                        "TEXCOORD_0" : 21
                    },
                    "indices" : 18,
                    "material" : 0
                }
            ]
        },
        {
            "name" : "Cube.001",
            "primitives" : [
                {
                    "attributes" : {
                        "POSITION" : 22,
                        "NORMAL" : 23,
                        "TEXCOORD_0" : 24
                    },
                    "indices" : 25
                }
            ]
        },
        {
            "name" : "Plane.007",
            "primitives" : [
                {
                    "attributes" : {
                        "POSITION" : 26,
                        "NORMAL" : 27,
                        "TEXCOORD_0" : 28
                    },
                    "indices" : 29,
                    "material" : 0
                }
            ]
        },
        {
            "name" : "Plane.008",
            "primitives" : [
                {
                    "attributes" : {
                        "POSITION" : 30,
                        "NORMAL" : 31,
                        "TEXCOORD_0" : 32
                    },
                    "indices" : 29,
                    "material" : 0
                }
            ]
        },
        {
            "name" : "Plane.009",
            "primitives" : [
                {
                    "attributes" : {
                        "POSITION" : 33,
                        "NORMAL" : 34,
                        "TEXCOORD_0" : 35
                    },
                    "indices" : 29,
                    "material" : 0
                }
            ]
        },
        {
            "name" : "Plane.003",
            "primitives" : [
                {
                    "attributes" : {
                        "POSITION" : 36,
                        "NORMAL" : 37,
                        "TEXCOORD_0" : 38
                    },
                    "indices" : 39,
                    "material" : 0
                }
            ]
        }
    ],
    "textures" : [
        {
            "source" : 0
        }
    ],
    "images" : [
        {
            "mimeType" : "image/png",
            "name" : "color_palette",
            "uri" : "color_palette.png"
        }
    ],
    "accessors" : [
        {
            "bufferView" : 0,
            "componentType" : 5126,
            "count" : 765,
            "max" : [
                64,
                6.909626483917236,
                64
            ],
            "min" : [
                -64,
                0,
                -64
            ],
            "type" : "VEC3"
        },
        {
            "bufferView" : 1,
            "componentType" : 5126,
            "count" : 765,
            "type" : "VEC3"
        },
        {
            "bufferView" : 2,
            "componentType" : 5126,
            "count" : 765,
            "type" : "VEC2"
        },
        {
            "bufferView" : 3,
            "componentType" : 5123,
            "count" : 1962,
            "type" : "SCALAR"
        },
        {
            "bufferView" : 4,
            "componentType" : 5126,
            "count" : 2353,
            "max" : [
                64,
                12.549501419067383,
                64
            ],
            "min" : [
                -64,
                -0.4152723550796509,
                -64
            ],
            "type" : "VEC3"
        },
        {
            "bufferView" : 5,
            "componentType" : 5126,
            "count" : 2353,
            "type" : "VEC3"
        },
        {
            "bufferView" : 6,
            "componentType" : 5126,
            "count" : 2353,
            "type" : "VEC2"
        },
        {
            "bufferView" : 7,
            "componentType" : 5123,
            "count" : 4041,
            "type" : "SCALAR"
        },
        {
            "bufferView" : 8,
            "componentType" : 5126,
            "count" : 760,
            "max" : [
                32,
                3.118197441101074,
                32
            ],
            "min" : [
                16,
                -0.49200356006622314,
                16
            ],
            "type" : "VEC3"
        },
        {
            "bufferView" : 9,
            "componentType" : 5126,
            "count" : 760,
            "type" : "VEC3"
        },
        {
            "bufferView" : 10,
            "componentType" : 5126,
            "count" : 760,
            "type" : "VEC2"
        },
        {
            "bufferView" : 11,
            "componentType" : 5123,
            "count" : 1551,
            "type" : "SCALAR"
        },
        {
            "bufferView" : 12,
            "componentType" : 5126,
            "count" : 760,
            "max" : [
                32,
                3.118197441101074,
                32
            ],
            "min" : [
                16,
                -0.49200356006622314,
                16
            ],
            "type" : "VEC3"
        },
        {
            "bufferView" : 13,
            "componentType" : 5126,
            "count" : 760,
            "type" : "VEC3"
        },
        {
            "bufferView" : 14,
            "componentType" : 5126,
            "count" : 760,
            "type" : "VEC2"
        },
        {
            "bufferView" : 15,
            "componentType" : 5126,
            "count" : 52,
            "max" : [
                -18.26253890991211,
                0.3218265175819397,
                -3.337073802947998
            ],
            "min" : [
                -45.73746109008789,
                0.122805655002594,
                -44.5494499206543
            ],
            "type" : "VEC3"
        },
        {
            "bufferView" : 16,
            "componentType" : 5126,
            "count" : 52,
            "type" : "VEC3"
        },
        {
            "bufferView" : 17,
            "componentType" : 5126,
            "count" : 52,
            "type" : "VEC2"
        },
        {
            "bufferView" : 18,
            "componentType" : 5123,
            "count" : 132,
            "type" : "SCALAR"
        },
        {
            "bufferView" : 19,
            "componentType" : 5126,
            "count" : 52,
            "max" : [
                -18.26253890991211,
                0.3218265175819397,
                -3.337073802947998
            ],
            "min" : [
                -45.73746109008789,
                0.122805655002594,
                -44.5494499206543
            ],
            "type" : "VEC3"
        },
        {
            "bufferView" : 20,
            "componentType" : 5126,
            "count" : 52,
            "type" : "VEC3"
        },
        {
            "bufferView" : 21,
            "componentType" : 5126,
            "count" : 52,
            "type" : "VEC2"
        },
        {
            "bufferView" : 22,
            "componentType" : 5126,
            "count" : 24,
            "max" : [
                1,
                1,
                1
            ],
            "min" : [
                -1,
                -1,
                -1
            ],
            "type" : "VEC3"
        },
        {
            "bufferView" : 23,
            "componentType" : 5126,
            "count" : 24,
            "type" : "VEC3"
        },
        {
            "bufferView" : 24,
            "componentType" : 5126,
            "count" : 24,
            "type" : "VEC2"
        },
        {
            "bufferView" : 25,
            "componentType" : 5123,
            "count" : 36,
            "type" : "SCALAR"
        },
        {
            "bufferView" : 26,
            "componentType" : 5126,
            "count" : 699,
            "max" : [
                28.50358772277832,
                3.1557602882385254,
                -25.70990562438965
            ],
            "min" : [
                27.315847396850586,
                2.5970773696899414,
                -26.23122215270996
            ],
            "type" : "VEC3"
        },
        {
            "bufferView" : 27,
            "componentType" : 5126,
            "count" : 699,
            "type" : "VEC3"
        },
        {
            "bufferView" : 28,
            "componentType" : 5126,
            "count" : 699,
            "type" : "VEC2"
        },
        {
            "bufferView" : 29,
            "componentType" : 5123,
            "count" : 1158,
            "type" : "SCALAR"
        },
        {
            "bufferView" : 30,
            "componentType" : 5126,
            "count" : 699,
            "max" : [
                28.50358772277832,
                3.1557602882385254,
                -25.70990562438965
            ],
            "min" : [
                27.315847396850586,
                2.5970773696899414,
                -26.23122215270996
            ],
            "type" : "VEC3"
        },
        {
            "bufferView" : 31,
            "componentType" : 5126,
            "count" : 699,
            "type" : "VEC3"
        },
        {
            "bufferView" : 32,
            "componentType" : 5126,
            "count" : 699,
            "type" : "VEC2"
        },
        {
            "bufferView" : 33,
            "componentType" : 5126,
            "count" : 699,
            "max" : [
                28.50358772277832,
                3.1557602882385254,
                -25.70990562438965
            ],
            "min" : [
                27.315847396850586,
                2.5970773696899414,
                -26.23122215270996
            ],
            "type" : "VEC3"
        },
        {
            "bufferView" : 34,
            "componentType" : 5126,
            "count" : 699,
            "type" : "VEC3"
        },
        {
            "bufferView" : 35,
            "componentType" : 5126,
            "count" : 699,
            "type" : "VEC2"
        },
        {
            "bufferView" : 36,
            "componentType" : 5126,
            "count" : 1522,
            "max" : [
                46.042232513427734,
                18.50353240966797,
                -24.21739959716797
            ],
            "min" : [
                17.69955825805664,
                -3.546018600463867,
                -54.882835388183594
            ],
            "type" : "VEC3"
        },
        {
            "bufferView" : 37,
            "componentType" : 5126,
            "count" : 1522,
            "type" : "VEC3"
        },
        {
            "bufferView" : 38,
            "componentType" : 5126,
            "count" : 1522,
            "type" : "VEC2"
        },
        {
            "bufferView" : 39,
            "componentType" : 5123,
            "count" : 2733,
            "type" : "SCALAR"
        }
    ],
    "bufferViews" : [
        {
            "buffer" : 0,
            "byteLength" : 9180,
            "byteOffset" : 0
        },
        {
            "buffer" : 0,
            "byteLength" : 9180,
            "byteOffset" : 9180
        },
        {
            "buffer" : 0,
            "byteLength" : 6120,
            "byteOffset" : 18360
        },
        {
            "buffer" : 0,
            "byteLength" : 3924,
            "byteOffset" : 24480
        },
        {
            "buffer" : 0,
            "byteLength" : 28236,
            "byteOffset" : 28404
        },
        {
            "buffer" : 0,
            "byteLength" : 28236,
            "byteOffset" : 56640
        },
        {
            "buffer" : 0,
            "byteLength" : 18824,
            "byteOffset" : 84876
        },
        {
            "buffer" : 0,
            "byteLength" : 8082,
            "byteOffset" : 103700
        },
        {
            "buffer" : 0,
            "byteLength" : 9120,
            "byteOffset" : 111784
        },
        {
            "buffer" : 0,
            "byteLength" : 9120,
            "byteOffset" : 120904
        },
        {
            "buffer" : 0,
            "byteLength" : 6080,
            "byteOffset" : 130024
        },
        {
            "buffer" : 0,
            "byteLength" : 3102,
            "byteOffset" : 136104
        },
        {
            "buffer" : 0,
            "byteLength" : 9120,
            "byteOffset" : 139208
        },
        {
            "buffer" : 0,
            "byteLength" : 9120,
            "byteOffset" : 148328
        },
        {
            "buffer" : 0,
            "byteLength" : 6080,
            "byteOffset" : 157448
        },
        {
            "buffer" : 0,
            "byteLength" : 624,
            "byteOffset" : 163528
        },
        {
            "buffer" : 0,
            "byteLength" : 624,
            "byteOffset" : 164152
        },
        {
            "buffer" : 0,
            "byteLength" : 416,
            "byteOffset" : 164776
        },
        {
            "buffer" : 0,
            "byteLength" : 264,
            "byteOffset" : 165192
        },
        {
            "buffer" : 0,
            "byteLength" : 624,
            "byteOffset" : 165456
        },
        {
            "buffer" : 0,
            "byteLength" : 624,
            "byteOffset" : 166080
        },
        {
            "buffer" : 0,
            "byteLength" : 416,
            "byteOffset" : 166704
        },
        {
            "buffer" : 0,
            "byteLength" : 288,
            "byteOffset" : 167120
        },
        {
            "buffer" : 0,
            "byteLength" : 288,
            "byteOffset" : 167408
        },
        {
            "buffer" : 0,
            "byteLength" : 192,
            "byteOffset" : 167696
        },
        {
            "buffer" : 0,
            "byteLength" : 72,
            "byteOffset" : 167888
        },
        {
            "buffer" : 0,
            "byteLength" : 8388,
            "byteOffset" : 167960
        },
        {
            "buffer" : 0,
            "byteLength" : 8388,
            "byteOffset" : 176348
        },
        {
            "buffer" : 0,
            "byteLength" : 5592,
            "byteOffset" : 184736
        },
        {
            "buffer" : 0,
            "byteLength" : 2316,
            "byteOffset" : 190328
        },
        {
            "buffer" : 0,
            "byteLength" : 8388,
            "byteOffset" : 192644
        },
        {
            "buffer" : 0,
            "byteLength" : 8388,
            "byteOffset" : 201032
        },
        {
            "buffer" : 0,
            "byteLength" : 5592,
            "byteOffset" : 209420
        },
        {
            "buffer" : 0,
            "byteLength" : 8388,
            "byteOffset" : 215012
        },
        {
            "buffer" : 0,
            "byteLength" : 8388,
            "byteOffset" : 223400
        },
        {
            "buffer" : 0,
            "byteLength" : 5592,
            "byteOffset" : 231788
        },
        {
            "buffer" : 0,
            "byteLength" : 18264,
            "byteOffset" : 237380
        },
        {
            "buffer" : 0,
            "byteLength" : 18264,
            "byteOffset" : 255644
        },
        {
            "buffer" : 0,
            "byteLength" : 12176,
            "byteOffset" : 273908
        },
        {
            "buffer" : 0,
            "byteLength" : 5466,
            "byteOffset" : 286084
        }
    ],
    "buffers" : [
        {
            "byteLength" : 291552,
            "uri" : "farm_land.bin"
        }
    ]
}
