{
    "asset" : {
        "generator" : "Khronos glTF Blender I/O v1.1.46",
        "version" : "2.0"
    },
    "scene" : 0,
    "scenes" : [
        {
            "name" : "Scene",
            "nodes" : [
                0,
                1,
                2,
                3
            ]
        }
    ],
    "nodes" : [
        {
            "mesh" : 0,
            "name" : "farm_land"
        },
        {
            "mesh" : 1,
            "name" : "farm_stable"
        },
        {
            "mesh" : 2,
            "name" : "farm_field"
        },
        {
            "mesh" : 3,
            "name" : "farm_house"
        }
    ],
    "materials" : [
        {
            "doubleSided" : true,
            "emissiveFactor" : [
                0,
                0,
                0
            ],
            "name" : "Material",
            "pbrMetallicRoughness" : {
                "baseColorTexture" : {
                    "index" : 0,
                    "texCoord" : 0
                },
                "metallicFactor" : 0,
                "roughnessFactor" : 0.4000000059604645
            }
        }
    ],
    "meshes" : [
        {
            "name" : "Plane",
            "primitives" : [
                {
                    "attributes" : {
                        "POSITION" : 0,
                        "NORMAL" : 1,
                        "TEXCOORD_0" : 2
                    },
                    "indices" : 3,
                    "material" : 0
                }
            ]
        },
        {
            "name" : "Plane.001",
            "primitives" : [
                {
                    "attributes" : {
                        "POSITION" : 4,
                        "NORMAL" : 5,
                        "TEXCOORD_0" : 6
                    },
                    "indices" : 7,
                    "material" : 0
                }
            ]
        },
        {
            "name" : "Plane.002",
            "primitives" : [
                {
                    "attributes" : {
                        "POSITION" : 8,
                        "NORMAL" : 9,
                        "TEXCOORD_0" : 10
                    },
                    "indices" : 11,
                    "material" : 0
                }
            ]
        },
        {
            "name" : "Plane.003",
            "primitives" : [
                {
                    "attributes" : {
                        "POSITION" : 12,
                        "NORMAL" : 13,
                        "TEXCOORD_0" : 14
                    },
                    "indices" : 15,
                    "material" : 0
                }
            ]
        }
    ],
    "textures" : [
        {
            "source" : 0
        }
    ],
    "images" : [
        {
            "mimeType" : "image/png",
            "name" : "color_palette",
            "uri" : "color_palette.png"
        }
    ],
    "accessors" : [
        {
            "bufferView" : 0,
            "componentType" : 5126,
            "count" : 725,
            "max" : [
                64,
                3.9114816188812256,
                64
            ],
            "min" : [
                -64,
                0,
                -64
            ],
            "type" : "VEC3"
        },
        {
            "bufferView" : 1,
            "componentType" : 5126,
            "count" : 725,
            "type" : "VEC3"
        },
        {
            "bufferView" : 2,
            "componentType" : 5126,
            "count" : 725,
            "type" : "VEC2"
        },
        {
            "bufferView" : 3,
            "componentType" : 5123,
            "count" : 1890,
            "type" : "SCALAR"
        },
        {
            "bufferView" : 4,
            "componentType" : 5126,
            "count" : 760,
            "max" : [
                32,
                3.118197441101074,
                32
            ],
            "min" : [
                16,
                -0.49200356006622314,
                16
            ],
            "type" : "VEC3"
        },
        {
            "bufferView" : 5,
            "componentType" : 5126,
            "count" : 760,
            "type" : "VEC3"
        },
        {
            "bufferView" : 6,
            "componentType" : 5126,
            "count" : 760,
            "type" : "VEC2"
        },
        {
            "bufferView" : 7,
            "componentType" : 5123,
            "count" : 1551,
            "type" : "SCALAR"
        },
        {
            "bufferView" : 8,
            "componentType" : 5126,
            "count" : 52,
            "max" : [
                -18.26253890991211,
                0.3218265175819397,
                -3.337073802947998
            ],
            "min" : [
                -45.73746109008789,
                0.122805655002594,
                -44.5494499206543
            ],
            "type" : "VEC3"
        },
        {
            "bufferView" : 9,
            "componentType" : 5126,
            "count" : 52,
            "type" : "VEC3"
        },
        {
            "bufferView" : 10,
            "componentType" : 5126,
            "count" : 52,
            "type" : "VEC2"
        },
        {
            "bufferView" : 11,
            "componentType" : 5123,
            "count" : 132,
            "type" : "SCALAR"
        },
        {
            "bufferView" : 12,
            "componentType" : 5126,
            "count" : 1385,
            "max" : [
                46.042232513427734,
                18.50353240966797,
                -24.629858016967773
            ],
            "min" : [
                17.69955825805664,
                -3.546018600463867,
                -54.882835388183594
            ],
            "type" : "VEC3"
        },
        {
            "bufferView" : 13,
            "componentType" : 5126,
            "count" : 1385,
            "type" : "VEC3"
        },
        {
            "bufferView" : 14,
            "componentType" : 5126,
            "count" : 1385,
            "type" : "VEC2"
        },
        {
            "bufferView" : 15,
            "componentType" : 5123,
            "count" : 2526,
            "type" : "SCALAR"
        }
    ],
    "bufferViews" : [
        {
            "buffer" : 0,
            "byteLength" : 8700,
            "byteOffset" : 0
        },
        {
            "buffer" : 0,
            "byteLength" : 8700,
            "byteOffset" : 8700
        },
        {
            "buffer" : 0,
            "byteLength" : 5800,
            "byteOffset" : 17400
        },
        {
            "buffer" : 0,
            "byteLength" : 3780,
            "byteOffset" : 23200
        },
        {
            "buffer" : 0,
            "byteLength" : 9120,
            "byteOffset" : 26980
        },
        {
            "buffer" : 0,
            "byteLength" : 9120,
            "byteOffset" : 36100
        },
        {
            "buffer" : 0,
            "byteLength" : 6080,
            "byteOffset" : 45220
        },
        {
            "buffer" : 0,
            "byteLength" : 3102,
            "byteOffset" : 51300
        },
        {
            "buffer" : 0,
            "byteLength" : 624,
            "byteOffset" : 54404
        },
        {
            "buffer" : 0,
            "byteLength" : 624,
            "byteOffset" : 55028
        },
        {
            "buffer" : 0,
            "byteLength" : 416,
            "byteOffset" : 55652
        },
        {
            "buffer" : 0,
            "byteLength" : 264,
            "byteOffset" : 56068
        },
        {
            "buffer" : 0,
            "byteLength" : 16620,
            "byteOffset" : 56332
        },
        {
            "buffer" : 0,
            "byteLength" : 16620,
            "byteOffset" : 72952
        },
        {
            "buffer" : 0,
            "byteLength" : 11080,
            "byteOffset" : 89572
        },
        {
            "buffer" : 0,
            "byteLength" : 5052,
            "byteOffset" : 100652
        }
    ],
    "buffers" : [
        {
            "byteLength" : 105704,
            "uri" : "farm_land.bin"
        }
    ]
}
