{
    "asset" : {
        "generator" : "Khronos glTF Blender I/O v1.1.46",
        "version" : "2.0"
    },
    "scene" : 0,
    "scenes" : [
        {
            "name" : "Scene",
            "nodes" : [
                0,
                1,
                2,
                3,
                4,
                5,
                6,
                7,
                8,
                9,
                10,
                11
            ]
        }
    ],
    "nodes" : [
        {
            "mesh" : 0,
            "name" : "plant_pot",
            "scale" : [
                1.3117393255233765,
                1.3117393255233765,
                1.3117393255233765
            ],
            "translation" : [
                0,
                0,
                -9.936202049255371
            ]
        },
        {
            "mesh" : 1,
            "name" : "sickel",
            "translation" : [
                0,
                0,
                -1.4936339855194092
            ]
        },
        {
            "mesh" : 2,
            "name" : "gras",
            "translation" : [
                0,
                0,
                -2.9526710510253906
            ]
        },
        {
            "mesh" : 3,
            "name" : "poo",
            "translation" : [
                0,
                0,
                -2.0083603858947754
            ]
        },
        {
            "mesh" : 4,
            "name" : "wheelbarrow",
            "translation" : [
                0,
                0,
                -6.100546360015869
            ]
        },
        {
            "mesh" : 5,
            "name" : "pitchfork"
        },
        {
            "mesh" : 6,
            "name" : "milk_can",
            "scale" : [
                1.004936933517456,
                1.004936933517456,
                1.004936933517456
            ],
            "translation" : [
                0,
                0.07336560636758804,
                2.104088544845581
            ]
        },
        {
            "mesh" : 7,
            "name" : "grasland",
            "translation" : [
                0,
                0,
                -7.9877448081970215
            ]
        },
        {
            "mesh" : 8,
            "name" : "milk_stool",
            "scale" : [
                0.07679374516010284,
                0.07679374516010284,
                0.07679374516010284
            ],
            "translation" : [
                0,
                0,
                -0.7656697034835815
            ]
        },
        {
            "mesh" : 9,
            "name" : "hatchet",
            "scale" : [
                0.754572868347168,
                0.754572868347168,
                0.754572868347168
            ],
            "translation" : [
                0,
                0,
                0.8663672208786011
            ]
        },
        {
            "mesh" : 10,
            "name" : "Cube"
        },
        {
            "mesh" : 11,
            "name" : "butter_maker",
            "scale" : [
                0.7846990823745728,
                0.7846990823745728,
                0.7846990823745728
            ],
            "translation" : [
                0,
                0.07336560636758804,
                3.5605759620666504
            ]
        }
    ],
    "materials" : [
        {
            "doubleSided" : true,
            "emissiveFactor" : [
                0,
                0,
                0
            ],
            "name" : "Material",
            "pbrMetallicRoughness" : {
                "baseColorTexture" : {
                    "index" : 0,
                    "texCoord" : 0
                },
                "metallicFactor" : 0,
                "roughnessFactor" : 0.4000000059604645
            }
        }
    ],
    "meshes" : [
        {
            "name" : "Plane.007",
            "primitives" : [
                {
                    "attributes" : {
                        "POSITION" : 0,
                        "NORMAL" : 1,
                        "TEXCOORD_0" : 2
                    },
                    "indices" : 3,
                    "material" : 0
                }
            ]
        },
        {
            "name" : "Cube.002",
            "primitives" : [
                {
                    "attributes" : {
                        "POSITION" : 4,
                        "NORMAL" : 5,
                        "TEXCOORD_0" : 6
                    },
                    "indices" : 7,
                    "material" : 0
                }
            ]
        },
        {
            "name" : "Cube.003",
            "primitives" : [
                {
                    "attributes" : {
                        "POSITION" : 8,
                        "NORMAL" : 9,
                        "TEXCOORD_0" : 10
                    },
                    "indices" : 11,
                    "material" : 0
                }
            ]
        },
        {
            "name" : "Cube.004",
            "primitives" : [
                {
                    "attributes" : {
                        "POSITION" : 12,
                        "NORMAL" : 13,
                        "TEXCOORD_0" : 14
                    },
                    "indices" : 15,
                    "material" : 0
                }
            ]
        },
        {
            "name" : "Cube.005",
            "primitives" : [
                {
                    "attributes" : {
                        "POSITION" : 16,
                        "NORMAL" : 17,
                        "TEXCOORD_0" : 18
                    },
                    "indices" : 19,
                    "material" : 0
                }
            ]
        },
        {
            "name" : "Cube.006",
            "primitives" : [
                {
                    "attributes" : {
                        "POSITION" : 20,
                        "NORMAL" : 21,
                        "TEXCOORD_0" : 22
                    },
                    "indices" : 23,
                    "material" : 0
                }
            ]
        },
        {
            "name" : "Cylinder",
            "primitives" : [
                {
                    "attributes" : {
                        "POSITION" : 24,
                        "NORMAL" : 25,
                        "TEXCOORD_0" : 26
                    },
                    "indices" : 27,
                    "material" : 0
                }
            ]
        },
        {
            "name" : "Cube.008",
            "primitives" : [
                {
                    "attributes" : {
                        "POSITION" : 28,
                        "NORMAL" : 29,
                        "TEXCOORD_0" : 30
                    },
                    "indices" : 31,
                    "material" : 0
                }
            ]
        },
        {
            "name" : "Cube",
            "primitives" : [
                {
                    "attributes" : {
                        "POSITION" : 32,
                        "NORMAL" : 33,
                        "TEXCOORD_0" : 34
                    },
                    "indices" : 35,
                    "material" : 0
                }
            ]
        },
        {
            "name" : "Cube.001",
            "primitives" : [
                {
                    "attributes" : {
                        "POSITION" : 36,
                        "NORMAL" : 37,
                        "TEXCOORD_0" : 38
                    },
                    "indices" : 39,
                    "material" : 0
                }
            ]
        },
        {
            "name" : "Cube.007",
            "primitives" : [
                {
                    "attributes" : {
                        "POSITION" : 40,
                        "NORMAL" : 41,
                        "TEXCOORD_0" : 42
                    },
                    "indices" : 43,
                    "material" : 0
                }
            ]
        },
        {
            "name" : "Cylinder.001",
            "primitives" : [
                {
                    "attributes" : {
                        "POSITION" : 44,
                        "NORMAL" : 45,
                        "TEXCOORD_0" : 46
                    },
                    "indices" : 47,
                    "material" : 0
                }
            ]
        }
    ],
    "textures" : [
        {
            "source" : 0
        }
    ],
    "images" : [
        {
            "mimeType" : "image/png",
            "name" : "color_palette",
            "uri" : "color_palette.png"
        }
    ],
    "accessors" : [
        {
            "bufferView" : 0,
            "componentType" : 5126,
            "count" : 695,
            "max" : [
                0.7129786014556885,
                0.310693621635437,
                0.08466231822967529
            ],
            "min" : [
                0.09100461006164551,
                0.018132805824279785,
                -0.1883317232131958
            ],
            "type" : "VEC3"
        },
        {
            "bufferView" : 1,
            "componentType" : 5126,
            "count" : 695,
            "type" : "VEC3"
        },
        {
            "bufferView" : 2,
            "componentType" : 5126,
            "count" : 695,
            "type" : "VEC2"
        },
        {
            "bufferView" : 3,
            "componentType" : 5123,
            "count" : 1158,
            "type" : "SCALAR"
        },
        {
            "bufferView" : 4,
            "componentType" : 5126,
            "count" : 136,
            "max" : [
                0.06357907503843307,
                0.8205834031105042,
                0.17951765656471252
            ],
            "min" : [
                -0.06357907503843307,
                -0.06357918679714203,
                -0.1964363306760788
            ],
            "type" : "VEC3"
        },
        {
            "bufferView" : 5,
            "componentType" : 5126,
            "count" : 136,
            "type" : "VEC3"
        },
        {
            "bufferView" : 6,
            "componentType" : 5126,
            "count" : 136,
            "type" : "VEC2"
        },
        {
            "bufferView" : 7,
            "componentType" : 5123,
            "count" : 204,
            "type" : "SCALAR"
        },
        {
            "bufferView" : 8,
            "componentType" : 5126,
            "count" : 560,
            "max" : [
                0.24144330620765686,
                1.1711004972457886,
                0.24144330620765686
            ],
            "min" : [
                -0.24144330620765686,
                -0.2063542753458023,
                -0.24144330620765686
            ],
            "type" : "VEC3"
        },
        {
            "bufferView" : 9,
            "componentType" : 5126,
            "count" : 560,
            "type" : "VEC3"
        },
        {
            "bufferView" : 10,
            "componentType" : 5126,
            "count" : 560,
            "type" : "VEC2"
        },
        {
            "bufferView" : 11,
            "componentType" : 5123,
            "count" : 852,
            "type" : "SCALAR"
        },
        {
            "bufferView" : 12,
            "componentType" : 5126,
            "count" : 240,
            "max" : [
                0.35739246010780334,
                0.1763492226600647,
                0.4193863272666931
            ],
            "min" : [
                -0.36811333894729614,
                -0.21755294501781464,
                -0.5350054502487183
            ],
            "type" : "VEC3"
        },
        {
            "bufferView" : 13,
            "componentType" : 5126,
            "count" : 240,
            "type" : "VEC3"
        },
        {
            "bufferView" : 14,
            "componentType" : 5126,
            "count" : 240,
            "type" : "VEC2"
        },
        {
            "bufferView" : 15,
            "componentType" : 5123,
            "count" : 288,
            "type" : "SCALAR"
        },
        {
            "bufferView" : 16,
            "componentType" : 5126,
            "count" : 320,
            "max" : [
                0.5215150117874146,
                0.8473300933837891,
                2.5268349647521973
            ],
            "min" : [
                -0.5103481411933899,
                -0.02074369229376316,
                -0.2998904883861542
            ],
            "type" : "VEC3"
        },
        {
            "bufferView" : 17,
            "componentType" : 5126,
            "count" : 320,
            "type" : "VEC3"
        },
        {
            "bufferView" : 18,
            "componentType" : 5126,
            "count" : 320,
            "type" : "VEC2"
        },
        {
            "bufferView" : 19,
            "componentType" : 5123,
            "count" : 564,
            "type" : "SCALAR"
        },
        {
            "bufferView" : 20,
            "componentType" : 5126,
            "count" : 216,
            "max" : [
                0.054385408759117126,
                2.469062328338623,
                0.2183917760848999
            ],
            "min" : [
                -0.029918266460299492,
                -0.10561102628707886,
                -0.21532857418060303
            ],
            "type" : "VEC3"
        },
        {
            "bufferView" : 21,
            "componentType" : 5126,
            "count" : 216,
            "type" : "VEC3"
        },
        {
            "bufferView" : 22,
            "componentType" : 5126,
            "count" : 216,
            "type" : "VEC2"
        },
        {
            "bufferView" : 23,
            "componentType" : 5123,
            "count" : 324,
            "type" : "SCALAR"
        },
        {
            "bufferView" : 24,
            "componentType" : 5126,
            "count" : 224,
            "max" : [
                0.28434398770332336,
                0.914474606513977,
                0.28434398770332336
            ],
            "min" : [
                -0.28434398770332336,
                -0.12186171859502792,
                -0.28434398770332336
            ],
            "type" : "VEC3"
        },
        {
            "bufferView" : 25,
            "componentType" : 5126,
            "count" : 224,
            "type" : "VEC3"
        },
        {
            "bufferView" : 26,
            "componentType" : 5126,
            "count" : 224,
            "type" : "VEC2"
        },
        {
            "bufferView" : 27,
            "componentType" : 5123,
            "count" : 372,
            "type" : "SCALAR"
        },
        {
            "bufferView" : 28,
            "componentType" : 5126,
            "count" : 1020,
            "max" : [
                1.0416595935821533,
                1.742937445640564,
                1.0416595935821533
            ],
            "min" : [
                -1.0103152990341187,
                -0.10494732856750488,
                -1.0175776481628418
            ],
            "type" : "VEC3"
        },
        {
            "bufferView" : 29,
            "componentType" : 5126,
            "count" : 1020,
            "type" : "VEC3"
        },
        {
            "bufferView" : 30,
            "componentType" : 5126,
            "count" : 1020,
            "type" : "VEC2"
        },
        {
            "bufferView" : 31,
            "componentType" : 5123,
            "count" : 2028,
            "type" : "SCALAR"
        },
        {
            "bufferView" : 32,
            "componentType" : 5126,
            "count" : 88,
            "max" : [
                0.32830479741096497,
                0.7198747396469116,
                0.32830479741096497
            ],
            "min" : [
                -0.32830479741096497,
                -0.07679378241300583,
                -0.32830479741096497
            ],
            "type" : "VEC3"
        },
        {
            "bufferView" : 33,
            "componentType" : 5126,
            "count" : 88,
            "type" : "VEC3"
        },
        {
            "bufferView" : 34,
            "componentType" : 5126,
            "count" : 88,
            "type" : "VEC2"
        },
        {
            "bufferView" : 35,
            "componentType" : 5123,
            "count" : 138,
            "type" : "SCALAR"
        },
        {
            "bufferView" : 36,
            "componentType" : 5126,
            "count" : 326,
            "max" : [
                0.08359573781490326,
                1.0311388969421387,
                0.44598352909088135
            ],
            "min" : [
                -0.08359573781490326,
                -0.003507584100589156,
                -0.10192889720201492
            ],
            "type" : "VEC3"
        },
        {
            "bufferView" : 37,
            "componentType" : 5126,
            "count" : 326,
            "type" : "VEC3"
        },
        {
            "bufferView" : 38,
            "componentType" : 5126,
            "count" : 326,
            "type" : "VEC2"
        },
        {
            "bufferView" : 39,
            "componentType" : 5123,
            "count" : 540,
            "type" : "SCALAR"
        },
        {
            "bufferView" : 40,
            "componentType" : 5126,
            "count" : 144,
            "max" : [
                0.8181276917457581,
                0.18478190898895264,
                0.5037634372711182
            ],
            "min" : [
                -0.2018883377313614,
                -0.18656492233276367,
                0.3979424238204956
            ],
            "type" : "VEC3"
        },
        {
            "bufferView" : 41,
            "componentType" : 5126,
            "count" : 144,
            "type" : "VEC3"
        },
        {
            "bufferView" : 42,
            "componentType" : 5126,
            "count" : 144,
            "type" : "VEC2"
        },
        {
            "bufferView" : 43,
            "componentType" : 5123,
            "count" : 216,
            "type" : "SCALAR"
        },
        {
            "bufferView" : 44,
            "componentType" : 5126,
            "count" : 276,
            "max" : [
                0.28975799679756165,
                1.9357856512069702,
                0.2897578477859497
            ],
            "min" : [
                -0.28975799679756165,
                -0.14797018468379974,
                -0.2897580862045288
            ],
            "type" : "VEC3"
        },
        {
            "bufferView" : 45,
            "componentType" : 5126,
            "count" : 276,
            "type" : "VEC3"
        },
        {
            "bufferView" : 46,
            "componentType" : 5126,
            "count" : 276,
            "type" : "VEC2"
        },
        {
            "bufferView" : 47,
            "componentType" : 5123,
            "count" : 456,
            "type" : "SCALAR"
        }
    ],
    "bufferViews" : [
        {
            "buffer" : 0,
            "byteLength" : 8340,
            "byteOffset" : 0
        },
        {
            "buffer" : 0,
            "byteLength" : 8340,
            "byteOffset" : 8340
        },
        {
            "buffer" : 0,
            "byteLength" : 5560,
            "byteOffset" : 16680
        },
        {
            "buffer" : 0,
            "byteLength" : 2316,
            "byteOffset" : 22240
        },
        {
            "buffer" : 0,
            "byteLength" : 1632,
            "byteOffset" : 24556
        },
        {
            "buffer" : 0,
            "byteLength" : 1632,
            "byteOffset" : 26188
        },
        {
            "buffer" : 0,
            "byteLength" : 1088,
            "byteOffset" : 27820
        },
        {
            "buffer" : 0,
            "byteLength" : 408,
            "byteOffset" : 28908
        },
        {
            "buffer" : 0,
            "byteLength" : 6720,
            "byteOffset" : 29316
        },
        {
            "buffer" : 0,
            "byteLength" : 6720,
            "byteOffset" : 36036
        },
        {
            "buffer" : 0,
            "byteLength" : 4480,
            "byteOffset" : 42756
        },
        {
            "buffer" : 0,
            "byteLength" : 1704,
            "byteOffset" : 47236
        },
        {
            "buffer" : 0,
            "byteLength" : 2880,
            "byteOffset" : 48940
        },
        {
            "buffer" : 0,
            "byteLength" : 2880,
            "byteOffset" : 51820
        },
        {
            "buffer" : 0,
            "byteLength" : 1920,
            "byteOffset" : 54700
        },
        {
            "buffer" : 0,
            "byteLength" : 576,
            "byteOffset" : 56620
        },
        {
            "buffer" : 0,
            "byteLength" : 3840,
            "byteOffset" : 57196
        },
        {
            "buffer" : 0,
            "byteLength" : 3840,
            "byteOffset" : 61036
        },
        {
            "buffer" : 0,
            "byteLength" : 2560,
            "byteOffset" : 64876
        },
        {
            "buffer" : 0,
            "byteLength" : 1128,
            "byteOffset" : 67436
        },
        {
            "buffer" : 0,
            "byteLength" : 2592,
            "byteOffset" : 68564
        },
        {
            "buffer" : 0,
            "byteLength" : 2592,
            "byteOffset" : 71156
        },
        {
            "buffer" : 0,
            "byteLength" : 1728,
            "byteOffset" : 73748
        },
        {
            "buffer" : 0,
            "byteLength" : 648,
            "byteOffset" : 75476
        },
        {
            "buffer" : 0,
            "byteLength" : 2688,
            "byteOffset" : 76124
        },
        {
            "buffer" : 0,
            "byteLength" : 2688,
            "byteOffset" : 78812
        },
        {
            "buffer" : 0,
            "byteLength" : 1792,
            "byteOffset" : 81500
        },
        {
            "buffer" : 0,
            "byteLength" : 744,
            "byteOffset" : 83292
        },
        {
            "buffer" : 0,
            "byteLength" : 12240,
            "byteOffset" : 84036
        },
        {
            "buffer" : 0,
            "byteLength" : 12240,
            "byteOffset" : 96276
        },
        {
            "buffer" : 0,
            "byteLength" : 8160,
            "byteOffset" : 108516
        },
        {
            "buffer" : 0,
            "byteLength" : 4056,
            "byteOffset" : 116676
        },
        {
            "buffer" : 0,
            "byteLength" : 1056,
            "byteOffset" : 120732
        },
        {
            "buffer" : 0,
            "byteLength" : 1056,
            "byteOffset" : 121788
        },
        {
            "buffer" : 0,
            "byteLength" : 704,
            "byteOffset" : 122844
        },
        {
            "buffer" : 0,
            "byteLength" : 276,
            "byteOffset" : 123548
        },
        {
            "buffer" : 0,
            "byteLength" : 3912,
            "byteOffset" : 123824
        },
        {
            "buffer" : 0,
            "byteLength" : 3912,
            "byteOffset" : 127736
        },
        {
            "buffer" : 0,
            "byteLength" : 2608,
            "byteOffset" : 131648
        },
        {
            "buffer" : 0,
            "byteLength" : 1080,
            "byteOffset" : 134256
        },
        {
            "buffer" : 0,
            "byteLength" : 1728,
            "byteOffset" : 135336
        },
        {
            "buffer" : 0,
            "byteLength" : 1728,
            "byteOffset" : 137064
        },
        {
            "buffer" : 0,
            "byteLength" : 1152,
            "byteOffset" : 138792
        },
        {
            "buffer" : 0,
            "byteLength" : 432,
            "byteOffset" : 139944
        },
        {
            "buffer" : 0,
            "byteLength" : 3312,
            "byteOffset" : 140376
        },
        {
            "buffer" : 0,
            "byteLength" : 3312,
            "byteOffset" : 143688
        },
        {
            "buffer" : 0,
            "byteLength" : 2208,
            "byteOffset" : 147000
        },
        {
            "buffer" : 0,
            "byteLength" : 912,
            "byteOffset" : 149208
        }
    ],
    "buffers" : [
        {
            "byteLength" : 150120,
            "uri" : "items.bin"
        }
    ]
}
