{
    "asset" : {
        "generator" : "Khronos glTF Blender I/O v1.1.46",
        "version" : "2.0"
    },
    "scene" : 0,
    "scenes" : [
        {
            "name" : "Scene",
            "nodes" : [
                1,
                2,
                3,
                5,
                7,
                8,
                9,
                10,
                11,
                12
            ]
        }
    ],
    "nodes" : [
        {
            "mesh" : 0,
            "name" : "Icosphere",
            "translation" : [
                -0.17194366455078125,
                3.230875015258789,
                0.13606300950050354
            ]
        },
        {
            "children" : [
                0
            ],
            "mesh" : 1,
            "name" : "tree01",
            "translation" : [
                -18.135574340820312,
                2.0561470985412598,
                0.4387868344783783
            ]
        },
        {
            "name" : "Light",
            "rotation" : [
                0.16907575726509094,
                0.7558803558349609,
                -0.27217137813568115,
                0.570947527885437
            ],
            "scale" : [
                0.17747998237609863,
                0.17747998237609863,
                0.17747998237609863
            ],
            "translation" : [
                -17.412124633789062,
                3.103964328765869,
                0.2603389024734497
            ]
        },
        {
            "name" : "Camera",
            "rotation" : [
                0.483536034822464,
                0.33687159419059753,
                -0.20870360732078552,
                0.7804827094078064
            ],
            "scale" : [
                0.17747998237609863,
                0.17747998237609863,
                0.17747998237609863
            ],
            "translation" : [
                -16.829517364501953,
                2.936147689819336,
                1.6679763793945312
            ]
        },
        {
            "mesh" : 2,
            "name" : "Icosphere.001",
            "translation" : [
                -0.2098398208618164,
                3.9429564476013184,
                0.16605117917060852
            ]
        },
        {
            "children" : [
                4
            ],
            "mesh" : 3,
            "name" : "tree02",
            "translation" : [
                -14.93244743347168,
                2.0561470985412598,
                0.4387868344783783
            ]
        },
        {
            "mesh" : 4,
            "name" : "Icosphere.002",
            "translation" : [
                -0.2098398208618164,
                3.9429564476013184,
                0.16605117917060852
            ]
        },
        {
            "children" : [
                6
            ],
            "mesh" : 5,
            "name" : "tree03",
            "translation" : [
                -10.743461608886719,
                2.033504009246826,
                0.4387868344783783
            ]
        },
        {
            "mesh" : 6,
            "name" : "bush01",
            "translation" : [
                -22.124755859375,
                2.610706329345703,
                0.5748499035835266
            ]
        },
        {
            "mesh" : 7,
            "name" : "bush02",
            "translation" : [
                -25.92287254333496,
                2.4839608669281006,
                0.44035446643829346
            ]
        },
        {
            "mesh" : 8,
            "name" : "stone01",
            "translation" : [
                -28.7608642578125,
                2.5928220748901367,
                0.6686307191848755
            ]
        },
        {
            "mesh" : 9,
            "name" : "stone02",
            "translation" : [
                -31.633827209472656,
                2.562370538711548,
                0.20307695865631104
            ]
        },
        {
            "mesh" : 10,
            "name" : "stone03",
            "translation" : [
                -33.99249267578125,
                2.562370538711548,
                0.20307695865631104
            ]
        }
    ],
    "materials" : [
        {
            "doubleSided" : true,
            "emissiveFactor" : [
                0,
                0,
                0
            ],
            "name" : "Material",
            "pbrMetallicRoughness" : {
                "baseColorTexture" : {
                    "index" : 0,
                    "texCoord" : 0
                },
                "metallicFactor" : 0,
                "roughnessFactor" : 0.4000000059604645
            }
        }
    ],
    "meshes" : [
        {
            "name" : "Icosphere",
            "primitives" : [
                {
                    "attributes" : {
                        "POSITION" : 0,
                        "NORMAL" : 1,
                        "TEXCOORD_0" : 2
                    },
                    "indices" : 3,
                    "material" : 0
                }
            ]
        },
        {
            "name" : "Cube",
            "primitives" : [
                {
                    "attributes" : {
                        "POSITION" : 4,
                        "NORMAL" : 5,
                        "TEXCOORD_0" : 6
                    },
                    "indices" : 7,
                    "material" : 0
                }
            ]
        },
        {
            "name" : "Icosphere.001",
            "primitives" : [
                {
                    "attributes" : {
                        "POSITION" : 8,
                        "NORMAL" : 9,
                        "TEXCOORD_0" : 10
                    },
                    "indices" : 3,
                    "material" : 0
                }
            ]
        },
        {
            "name" : "Cube.001",
            "primitives" : [
                {
                    "attributes" : {
                        "POSITION" : 11,
                        "NORMAL" : 12,
                        "TEXCOORD_0" : 13
                    },
                    "indices" : 14,
                    "material" : 0
                }
            ]
        },
        {
            "name" : "Icosphere.002",
            "primitives" : [
                {
                    "attributes" : {
                        "POSITION" : 15,
                        "NORMAL" : 16,
                        "TEXCOORD_0" : 17
                    },
                    "indices" : 3,
                    "material" : 0
                }
            ]
        },
        {
            "name" : "Cube.002",
            "primitives" : [
                {
                    "attributes" : {
                        "POSITION" : 18,
                        "NORMAL" : 19,
                        "TEXCOORD_0" : 20
                    },
                    "indices" : 21,
                    "material" : 0
                }
            ]
        },
        {
            "name" : "Icosphere.003",
            "primitives" : [
                {
                    "attributes" : {
                        "POSITION" : 22,
                        "NORMAL" : 23,
                        "TEXCOORD_0" : 24
                    },
                    "indices" : 3,
                    "material" : 0
                }
            ]
        },
        {
            "name" : "Icosphere.004",
            "primitives" : [
                {
                    "attributes" : {
                        "POSITION" : 25,
                        "NORMAL" : 26,
                        "TEXCOORD_0" : 27
                    },
                    "indices" : 3,
                    "material" : 0
                }
            ]
        },
        {
            "name" : "Icosphere.005",
            "primitives" : [
                {
                    "attributes" : {
                        "POSITION" : 28,
                        "NORMAL" : 29,
                        "TEXCOORD_0" : 30
                    },
                    "indices" : 3,
                    "material" : 0
                }
            ]
        },
        {
            "name" : "Icosphere.006",
            "primitives" : [
                {
                    "attributes" : {
                        "POSITION" : 31,
                        "NORMAL" : 32,
                        "TEXCOORD_0" : 33
                    },
                    "indices" : 3,
                    "material" : 0
                }
            ]
        },
        {
            "name" : "Icosphere.007",
            "primitives" : [
                {
                    "attributes" : {
                        "POSITION" : 34,
                        "NORMAL" : 35,
                        "TEXCOORD_0" : 36
                    },
                    "indices" : 3,
                    "material" : 0
                }
            ]
        }
    ],
    "textures" : [
        {
            "source" : 0
        }
    ],
    "images" : [
        {
            "bufferView" : 4,
            "mimeType" : "image/png",
            "name" : "color_palette"
        }
    ],
    "accessors" : [
        {
            "bufferView" : 0,
            "componentType" : 5126,
            "count" : 306,
            "max" : [
                1.180145502090454,
                0.9797528386116028,
                1.0622060298919678
            ],
            "min" : [
                -1.1927294731140137,
                -1.0035868883132935,
                -1.4421285390853882
            ],
            "type" : "VEC3"
        },
        {
            "bufferView" : 1,
            "componentType" : 5126,
            "count" : 306,
            "type" : "VEC3"
        },
        {
            "bufferView" : 2,
            "componentType" : 5126,
            "count" : 306,
            "type" : "VEC2"
        },
        {
            "bufferView" : 3,
            "componentType" : 5123,
            "count" : 306,
            "type" : "SCALAR"
        },
        {
            "bufferView" : 5,
            "componentType" : 5126,
            "count" : 648,
            "max" : [
                0.32884347438812256,
                2.590926170349121,
                0.46337705850601196
            ],
            "min" : [
                -0.485988974571228,
                -0.04272956773638725,
                -0.4606451988220215
            ],
            "type" : "VEC3"
        },
        {
            "bufferView" : 6,
            "componentType" : 5126,
            "count" : 648,
            "type" : "VEC3"
        },
        {
            "bufferView" : 7,
            "componentType" : 5126,
            "count" : 648,
            "type" : "VEC2"
        },
        {
            "bufferView" : 8,
            "componentType" : 5123,
            "count" : 972,
            "type" : "SCALAR"
        },
        {
            "bufferView" : 9,
            "componentType" : 5126,
            "count" : 306,
            "max" : [
                1.3666046857833862,
                3.759648323059082,
                0.8882299065589905
            ],
            "min" : [
                -1.274031162261963,
                -1.2247765064239502,
                -1.7846723794937134
            ],
            "type" : "VEC3"
        },
        {
            "bufferView" : 10,
            "componentType" : 5126,
            "count" : 306,
            "type" : "VEC3"
        },
        {
            "bufferView" : 11,
            "componentType" : 5126,
            "count" : 306,
            "type" : "VEC2"
        },
        {
            "bufferView" : 12,
            "componentType" : 5126,
            "count" : 648,
            "max" : [
                0.4229526221752167,
                3.1920948028564453,
                0.5804252028465271
            ],
            "min" : [
                -0.5450659394264221,
                -0.05077613890171051,
                -0.5414421558380127
            ],
            "type" : "VEC3"
        },
        {
            "bufferView" : 13,
            "componentType" : 5126,
            "count" : 648,
            "type" : "VEC3"
        },
        {
            "bufferView" : 14,
            "componentType" : 5126,
            "count" : 648,
            "type" : "VEC2"
        },
        {
            "bufferView" : 15,
            "componentType" : 5123,
            "count" : 972,
            "type" : "SCALAR"
        },
        {
            "bufferView" : 16,
            "componentType" : 5126,
            "count" : 306,
            "max" : [
                2.7245934009552,
                1.6719375848770142,
                2.712716817855835
            ],
            "min" : [
                -2.175585985183716,
                -1.3222416639328003,
                -2.7022030353546143
            ],
            "type" : "VEC3"
        },
        {
            "bufferView" : 17,
            "componentType" : 5126,
            "count" : 306,
            "type" : "VEC3"
        },
        {
            "bufferView" : 18,
            "componentType" : 5126,
            "count" : 306,
            "type" : "VEC2"
        },
        {
            "bufferView" : 19,
            "componentType" : 5126,
            "count" : 648,
            "max" : [
                1.035760521888733,
                3.7433979511260986,
                1.071421504020691
            ],
            "min" : [
                -1.2966128587722778,
                -0.05077613890171051,
                -1.4990007877349854
            ],
            "type" : "VEC3"
        },
        {
            "bufferView" : 20,
            "componentType" : 5126,
            "count" : 648,
            "type" : "VEC3"
        },
        {
            "bufferView" : 21,
            "componentType" : 5126,
            "count" : 648,
            "type" : "VEC2"
        },
        {
            "bufferView" : 22,
            "componentType" : 5123,
            "count" : 972,
            "type" : "SCALAR"
        },
        {
            "bufferView" : 23,
            "componentType" : 5126,
            "count" : 306,
            "max" : [
                1.2886446714401245,
                0.8322839140892029,
                1.064223051071167
            ],
            "min" : [
                -1.2001155614852905,
                -0.7058742642402649,
                -1.4262186288833618
            ],
            "type" : "VEC3"
        },
        {
            "bufferView" : 24,
            "componentType" : 5126,
            "count" : 306,
            "type" : "VEC3"
        },
        {
            "bufferView" : 25,
            "componentType" : 5126,
            "count" : 306,
            "type" : "VEC2"
        },
        {
            "bufferView" : 26,
            "componentType" : 5126,
            "count" : 306,
            "max" : [
                0.7991319894790649,
                0.48679304122924805,
                0.638516366481781
            ],
            "min" : [
                -0.9207456707954407,
                -0.4958670139312744,
                -0.9270855784416199
            ],
            "type" : "VEC3"
        },
        {
            "bufferView" : 27,
            "componentType" : 5126,
            "count" : 306,
            "type" : "VEC3"
        },
        {
            "bufferView" : 28,
            "componentType" : 5126,
            "count" : 306,
            "type" : "VEC2"
        },
        {
            "bufferView" : 29,
            "componentType" : 5126,
            "count" : 306,
            "max" : [
                0.7991319894790649,
                0.48679304122924805,
                0.638516366481781
            ],
            "min" : [
                -0.9207456707954407,
                -0.4958670139312744,
                -0.9270855784416199
            ],
            "type" : "VEC3"
        },
        {
            "bufferView" : 30,
            "componentType" : 5126,
            "count" : 306,
            "type" : "VEC3"
        },
        {
            "bufferView" : 31,
            "componentType" : 5126,
            "count" : 306,
            "type" : "VEC2"
        },
        {
            "bufferView" : 32,
            "componentType" : 5126,
            "count" : 306,
            "max" : [
                0.8060946464538574,
                1.1976124048233032,
                0.6143001914024353
            ],
            "min" : [
                -0.9163923263549805,
                -0.4840847849845886,
                -0.9335129857063293
            ],
            "type" : "VEC3"
        },
        {
            "bufferView" : 33,
            "componentType" : 5126,
            "count" : 306,
            "type" : "VEC3"
        },
        {
            "bufferView" : 34,
            "componentType" : 5126,
            "count" : 306,
            "type" : "VEC2"
        },
        {
            "bufferView" : 35,
            "componentType" : 5126,
            "count" : 306,
            "max" : [
                0.8065545558929443,
                1.3895481824874878,
                0.604329526424408
            ],
            "min" : [
                -1.3883916139602661,
                -0.48871055245399475,
                -0.9125984907150269
            ],
            "type" : "VEC3"
        },
        {
            "bufferView" : 36,
            "componentType" : 5126,
            "count" : 306,
            "type" : "VEC3"
        },
        {
            "bufferView" : 37,
            "componentType" : 5126,
            "count" : 306,
            "type" : "VEC2"
        }
    ],
    "bufferViews" : [
        {
            "buffer" : 0,
            "byteLength" : 3672,
            "byteOffset" : 0
        },
        {
            "buffer" : 0,
            "byteLength" : 3672,
            "byteOffset" : 3672
        },
        {
            "buffer" : 0,
            "byteLength" : 2448,
            "byteOffset" : 7344
        },
        {
            "buffer" : 0,
            "byteLength" : 612,
            "byteOffset" : 9792
        },
        {
            "buffer" : 0,
            "byteLength" : 2975,
            "byteOffset" : 10404
        },
        {
            "buffer" : 0,
            "byteLength" : 7776,
            "byteOffset" : 13380
        },
        {
            "buffer" : 0,
            "byteLength" : 7776,
            "byteOffset" : 21156
        },
        {
            "buffer" : 0,
            "byteLength" : 5184,
            "byteOffset" : 28932
        },
        {
            "buffer" : 0,
            "byteLength" : 1944,
            "byteOffset" : 34116
        },
        {
            "buffer" : 0,
            "byteLength" : 3672,
            "byteOffset" : 36060
        },
        {
            "buffer" : 0,
            "byteLength" : 3672,
            "byteOffset" : 39732
        },
        {
            "buffer" : 0,
            "byteLength" : 2448,
            "byteOffset" : 43404
        },
        {
            "buffer" : 0,
            "byteLength" : 7776,
            "byteOffset" : 45852
        },
        {
            "buffer" : 0,
            "byteLength" : 7776,
            "byteOffset" : 53628
        },
        {
            "buffer" : 0,
            "byteLength" : 5184,
            "byteOffset" : 61404
        },
        {
            "buffer" : 0,
            "byteLength" : 1944,
            "byteOffset" : 66588
        },
        {
            "buffer" : 0,
            "byteLength" : 3672,
            "byteOffset" : 68532
        },
        {
            "buffer" : 0,
            "byteLength" : 3672,
            "byteOffset" : 72204
        },
        {
            "buffer" : 0,
            "byteLength" : 2448,
            "byteOffset" : 75876
        },
        {
            "buffer" : 0,
            "byteLength" : 7776,
            "byteOffset" : 78324
        },
        {
            "buffer" : 0,
            "byteLength" : 7776,
            "byteOffset" : 86100
        },
        {
            "buffer" : 0,
            "byteLength" : 5184,
            "byteOffset" : 93876
        },
        {
            "buffer" : 0,
            "byteLength" : 1944,
            "byteOffset" : 99060
        },
        {
            "buffer" : 0,
            "byteLength" : 3672,
            "byteOffset" : 101004
        },
        {
            "buffer" : 0,
            "byteLength" : 3672,
            "byteOffset" : 104676
        },
        {
            "buffer" : 0,
            "byteLength" : 2448,
            "byteOffset" : 108348
        },
        {
            "buffer" : 0,
            "byteLength" : 3672,
            "byteOffset" : 110796
        },
        {
            "buffer" : 0,
            "byteLength" : 3672,
            "byteOffset" : 114468
        },
        {
            "buffer" : 0,
            "byteLength" : 2448,
            "byteOffset" : 118140
        },
        {
            "buffer" : 0,
            "byteLength" : 3672,
            "byteOffset" : 120588
        },
        {
            "buffer" : 0,
            "byteLength" : 3672,
            "byteOffset" : 124260
        },
        {
            "buffer" : 0,
            "byteLength" : 2448,
            "byteOffset" : 127932
        },
        {
            "buffer" : 0,
            "byteLength" : 3672,
            "byteOffset" : 130380
        },
        {
            "buffer" : 0,
            "byteLength" : 3672,
            "byteOffset" : 134052
        },
        {
            "buffer" : 0,
            "byteLength" : 2448,
            "byteOffset" : 137724
        },
        {
            "buffer" : 0,
            "byteLength" : 3672,
            "byteOffset" : 140172
        },
        {
            "buffer" : 0,
            "byteLength" : 3672,
            "byteOffset" : 143844
        },
        {
            "buffer" : 0,
            "byteLength" : 2448,
            "byteOffset" : 147516
        }
    ],
    "buffers" : [
        {
            "byteLength" : 149964,
            "uri" : "data:application/octet-stream;base64,"
        }
    ]
}
